<?xml version="1.0" encoding="UTF-8"?>
<svg version="1.1" xmlns="http://www.w3.org/2000/svg" width="230" height="161">
<path d="M0 0 C75.9 0 151.8 0 230 0 C230 53.13 230 106.26 230 161 C154.1 161 78.2 161 0 161 C0 107.87 0 54.74 0 0 Z " fill="#FEFEFE" transform="translate(0,0)"/>
<path d="M0 0 C2.56235953 3.18323155 4.36750336 6.4907583 6.1875 10.14453125 C6.48648193 10.74263611 6.78546387 11.34074097 7.09350586 11.95697021 C8.06649276 13.90677516 9.03338122 15.85953127 10 17.8125 C10.67431305 19.16731902 11.34879374 20.52205461 12.0234375 21.87670898 C16.55689939 30.99838767 20.97430003 40.17201778 25.33325195 49.37841797 C28.66557029 56.38626501 32.22334186 63.22226668 36 70 C41.61654141 59.49117211 47.08029808 48.91709856 52.375 38.2421875 C52.91640625 37.15149963 53.4578125 36.06081177 54.015625 34.93707275 C56.25357022 30.42472642 58.48885502 25.91109684 60.71728516 21.39404297 C62.36874681 18.04911336 64.02753564 14.70790374 65.6875 11.3671875 C66.19265137 10.33826385 66.69780273 9.30934021 67.21826172 8.24923706 C67.68635254 7.30960114 68.15444336 6.36996521 68.63671875 5.40185547 C69.25099731 4.15878128 69.25099731 4.15878128 69.87768555 2.89059448 C71 1 71 1 73 0 C79.91519325 13.78371304 86.82583366 27.56970133 93.7310257 41.35842705 C96.93716672 47.76038649 100.14480644 54.16158679 103.35595703 60.56103516 C106.15404426 66.13730587 108.9493378 71.71496633 111.74125338 77.29432976 C113.22031892 80.24984835 114.70120992 83.20442911 116.18461609 86.15777206 C117.83836286 89.45083887 119.48715978 92.74633794 121.13476562 96.04248047 C121.87814934 97.51846207 121.87814934 97.51846207 122.6365509 99.02426147 C123.08250107 99.91891113 123.52845123 100.81356079 123.98791504 101.73532104 C124.37875526 102.51515791 124.76959549 103.29499477 125.17227936 104.09846306 C126 106 126 106 126 108 C114.12 108 102.24 108 90 108 C82 92 82 92 79.3203125 86.53515625 C78.9490625 85.77912109 78.5778125 85.02308594 78.1953125 84.24414062 C77.45405162 82.73321288 76.71737588 81.22003028 75.984375 79.70507812 C74.25351375 75.66971937 74.25351375 75.66971937 71 73 C70.73646729 73.85231201 70.47293457 74.70462402 70.20141602 75.58276367 C68.96057386 79.11214137 67.45485942 82.33284908 65.77734375 85.67578125 C65.47180069 86.28640915 65.16625763 86.89703705 64.85145569 87.52616882 C64.21040683 88.80526539 63.56743009 90.08339744 62.92260742 91.3605957 C61.9326685 93.32207319 60.94928399 95.2867342 59.96679688 97.25195312 C55.14769955 106.85230045 55.14769955 106.85230045 54 108 C51.3337397 108.08855161 48.69352886 108.11524673 46.02734375 108.09765625 C45.22970108 108.0962413 44.43205841 108.09482635 43.61024475 108.09336853 C41.05262565 108.08775316 38.49509282 108.07519812 35.9375 108.0625 C34.20768355 108.05748698 32.47786574 108.05292373 30.74804688 108.04882812 C26.49866447 108.03777875 22.24934688 108.02050386 18 108 C17.52578613 107.04109863 17.05157227 106.08219727 16.56298828 105.09423828 C14.8040242 101.54013417 13.03978212 97.98867233 11.27392578 94.43798828 C10.51011022 92.90029413 9.74773164 91.36188532 8.98681641 89.82275391 C7.8934139 87.61171441 6.79488458 85.40328895 5.6953125 83.1953125 C5.3556546 82.50567413 5.0159967 81.81603577 4.66604614 81.10549927 C3.30792499 78.38861619 2.16298163 76.16298163 0 74 C-5.61 85.22 -11.22 96.44 -17 108 C-28.88 108 -40.76 108 -53 108 C-50.96158994 101.88476981 -49.07032161 96.86155177 -46 91.375 C-42.48846395 84.95186549 -39.25130384 78.43412448 -36.1328125 71.8125 C-29.8754793 58.63364133 -23.36828513 45.58291123 -16.83496094 32.53955078 C-15.17236107 29.2201778 -13.51350226 25.89895 -11.85558891 22.57723427 C-10.56512434 19.99271023 -9.27277508 17.40913236 -7.9798317 14.82584763 C-7.36602224 13.59889435 -6.75280373 12.37164526 -6.14019394 11.14409256 C-5.29574982 9.45268184 -4.44848733 7.76267908 -3.60107422 6.07275391 C-2.88139969 4.63459824 -2.88139969 4.63459824 -2.14718628 3.16738892 C-1 1 -1 1 0 0 Z " fill="#87EDF7" transform="translate(78,23)"/>
<path d="M0 0 C11.88 0 23.76 0 36 0 C34.44884332 4.65347005 32.72715502 8.81289358 30.5234375 13.1484375 C30.23057861 13.73214111 29.93771973 14.31584473 29.63598633 14.91723633 C28.55339795 17.072044 27.4637976 19.22332309 26.375 21.375 C22.724375 28.614375 22.724375 28.614375 19 36 C7.12 36 -4.76 36 -17 36 C-14.88580951 29.65742852 -12.80002379 24.30650419 -9.625 18.5625 C-6.28527651 12.4300767 -3.1265341 6.2530682 0 0 Z " fill="#6AE9F5" transform="translate(42,95)"/>
<path d="M0 0 C2.73456228 3.36263825 4.65562844 7.02078616 6.57421875 10.8828125 C6.90291458 11.53829071 7.23161041 12.19376892 7.57026672 12.86911011 C8.26048116 14.24818326 8.94869299 15.62826032 9.63500977 17.00927734 C10.68885218 19.12771816 11.75120873 21.24173399 12.81445312 23.35546875 C13.48488851 24.69766029 14.1548279 26.04009972 14.82421875 27.3828125 C15.14291428 28.01615509 15.4616098 28.64949768 15.78996277 29.30203247 C18 33.77004717 18 33.77004717 18 36 C6.12 36 -5.76 36 -18 36 C-12.31074598 23.80874139 -6.40644088 11.8284405 0 0 Z " fill="#A7F2F9" transform="translate(150,23)"/>
<path d="M0 0 C0.66 0.66 1.32 1.32 2 2 C-3.94 13.88 -9.88 25.76 -16 38 C-18.58957093 34.54723876 -20.38322628 31.46455372 -22.28515625 27.625 C-22.58691269 27.01865723 -22.88866913 26.41231445 -23.1995697 25.78759766 C-24.15767545 23.86025494 -25.11017305 21.93020355 -26.0625 20 C-26.70600863 18.70294058 -27.34988525 17.40606366 -27.99414062 16.109375 C-29.17684808 13.72767596 -30.35695801 11.34475613 -31.53540039 8.9609375 C-32.68452915 6.63777803 -33.84089976 4.31820048 -35 2 C-23.45 2 -11.9 2 0 2 C0 1.34 0 0.68 0 0 Z " fill="#A5F2F9" transform="translate(113,93)"/>
<path d="M0 0 C3.19264672 2.68526683 4.77268089 6.14608641 6.57421875 9.8203125 C6.90291458 10.47957733 7.23161041 11.13884216 7.57026672 11.81808472 C8.26132985 13.20691562 8.94952028 14.59717919 9.63500977 15.98876953 C10.68857561 18.12718316 11.75071361 20.26116301 12.81445312 22.39453125 C13.48487635 23.74454281 14.15481534 25.09479497 14.82421875 26.4453125 C15.14291428 27.08695343 15.4616098 27.72859436 15.78996277 28.38967896 C18 32.8828125 18 32.8828125 18 34 C6.45 34 -5.1 34 -17 34 C-16.09339889 29.46699447 -14.94507612 26.50382565 -12.91015625 22.421875 C-12.60556992 21.80983215 -12.30098358 21.19778931 -11.98716736 20.56719971 C-11.34538623 19.28160491 -10.70060044 17.99750615 -10.05297852 16.71484375 C-9.06077295 14.74657399 -8.08160959 12.77218835 -7.10351562 10.796875 C-6.47733222 9.54648924 -5.850405 8.29647563 -5.22265625 7.046875 C-4.36812866 5.34289551 -4.36812866 5.34289551 -3.49633789 3.60449219 C-2 1 -2 1 0 0 Z " fill="#6BE9F5" transform="translate(132,61)"/>
<path d="M0 0 C11.55 0 23.1 0 35 0 C29.62077053 11.51491309 24.11203877 22.85843614 18 34 C17.34 34 16.68 34 16 34 C13.71626417 29.48187768 11.43774196 24.9611797 9.1640625 20.43798828 C8.38945838 18.8988525 7.61342138 17.360437 6.8359375 15.82275391 C5.72020167 13.61547549 4.6096039 11.40567846 3.5 9.1953125 C3.15001953 8.50567413 2.80003906 7.81603577 2.43945312 7.10549927 C0 2.22774341 0 2.22774341 0 0 Z " fill="#69E9F5" transform="translate(151,95)"/>
<path d="M0 0 C3.92444071 4.86452433 6.43550111 10.5364409 9.20776367 16.09985352 C10.1878371 18.06317529 11.17848504 20.02091243 12.16992188 21.97851562 C12.79491894 23.22623807 13.41928982 24.47427441 14.04296875 25.72265625 C14.61039795 26.85453369 15.17782715 27.98641113 15.76245117 29.15258789 C17 32 17 32 17 35 C5.78 35 -5.44 35 -17 35 C-15.47884199 30.43652598 -13.91324523 26.58061639 -11.77734375 22.32421875 C-11.47180069 21.71359085 -11.16625763 21.10296295 -10.85145569 20.47383118 C-10.21040683 19.19473461 -9.56743009 17.91660256 -8.92260742 16.6394043 C-7.9326685 14.67792681 -6.94928399 12.7132658 -5.96679688 10.74804688 C-1.14769955 1.14769955 -1.14769955 1.14769955 0 0 Z " fill="#6CE9F5" transform="translate(78,23)"/>
</svg>
